<svg xmlns="http://www.w3.org/2000/svg" width="360" height="73.954" viewBox="0 0 360 73.954"><path d="M57.214,9.554H28.552L24.66,31.935H50.137l-1.769,9.377h-25.3L18.91,64.489H47.572l-1.681,9.465H5.11L18.2,0H58.895Z" transform="translate(40.094)" fill="#fff"/><path d="M39.285,47.15,23.627,73.689H9.738L32.65,36.8,9.65,0H23.185L39.992,26.981,55.65,0H69.185L46.1,37.066,69.008,73.954H55.473Z" transform="translate(81.201)" fill="#f9b742"/><path d="M40.749,44.231H27.391V73.777H15.36V0H40.749c17.692,0,26.1,10,26.1,21.939C66.845,32.554,59.945,44.231,40.749,44.231Zm0-9.819c9.465,0,13.712-4.6,13.712-12.031S50.214,10.262,40.749,10.262H27.391v23.8Z" transform="translate(127.461)" fill="#fff"/><path d="M62.481,9.908H33.819V31.581H59.739V41.4H33.819V64.047H62.481v9.819H21.7V0H62.481Z" transform="translate(179.726)" fill="#fff"/><path d="M52.647,0c17.25,0,26.1,10.085,26.1,22.027A20.966,20.966,0,0,1,61.67,43.169L79.893,73.689H65.474L48.489,44.231H39.643V73.689H27.17V0Zm0,9.908H39.289V34.589H52.647A11.942,11.942,0,0,0,66.359,22.027C66.359,14.685,62.113,9.908,52.647,9.908Z" transform="translate(225.515)" fill="#fff"/><path d="M33.13,0H85.057V9.908H64.976v63.87H52.857V9.908H33.13Z" transform="translate(274.943)" fill="#fff"/><path d="M43.742.01,42.061,9.475H1.28L3.049.01Z" transform="translate(10.043 0.078)" fill="#fff"/><path d="M43.1,3.6l-1.681,9.465H.64L2.321,3.6Z" transform="translate(5.022 28.246)" fill="#fff"/><path d="M42.462,7.29l-1.681,9.465H0L1.681,7.29Z" transform="translate(0 57.199)" fill="#fff"/></svg>