<svg xmlns="http://www.w3.org/2000/svg" width="360" height="77.204" viewBox="0 0 360 77.204"><path d="M59.5,9.974H29.582L25.519,33.338h26.6l-1.847,9.789H23.857l-4.34,24.2H49.437L47.683,77.2H5.11L18.778,0h42.48Z" transform="translate(42.08)" fill="#1d1d1b"/><path d="M38.483,49.222l-15.234,27.7H9.736L32.028,38.417,9.65,0H22.818L39.171,28.166,54.405,0H67.574L45.11,38.694,67.4,77.2H54.233Z" transform="translate(85.646)" fill="#f9b742"/><path d="M41.864,46.174H27.919V77.019H15.36V0h26.5c18.47,0,27.243,10.435,27.243,22.9C69.107,33.984,61.9,46.174,41.864,46.174Zm0-10.251c9.881,0,14.314-4.8,14.314-12.559S51.745,10.712,41.864,10.712H27.919V35.554Z" transform="translate(126.414)" fill="#1d1d1b"/><path d="M64.273,10.343H34.352V32.969H61.41V43.219H34.352V66.86H64.273V77.111H21.7V0H64.273Z" transform="translate(178.596)" fill="#1d1d1b"/><path d="M53.766,0C71.774,0,81.009,10.528,81.009,22.995A21.887,21.887,0,0,1,63.186,45.066L82.21,76.927H67.157L49.426,46.174H40.191V76.927H27.17V0Zm0,10.343H39.822V36.108H53.766A12.467,12.467,0,0,0,68.08,22.995C68.08,15.33,63.648,10.343,53.766,10.343Z" transform="translate(223.61)" fill="#1d1d1b"/><path d="M33.13,0H87.339V10.343H66.376V77.019H53.724V10.343H33.13Z" transform="translate(272.661)" fill="#1d1d1b"/><path d="M45.607.01,43.853,9.891H1.28L3.127.01Z" transform="translate(10.541 0.082)" fill="#1d1d1b"/><path d="M44.967,3.6l-1.755,9.881H.64L2.395,3.6Z" transform="translate(5.27 29.646)" fill="#1d1d1b"/><path d="M44.327,7.29l-1.755,9.881H0L1.755,7.29Z" transform="translate(0 60.032)" fill="#1d1d1b"/></svg>