<svg xmlns="http://www.w3.org/2000/svg" width="60" height="31.911" viewBox="0 0 60 31.911"><path d="M25.74,4.089H14.392L12.85,13.758H22.938l-.7,4.013H12.22L10.574,27.822H21.922l-.665,4.089H5.11L10.294,0H26.405Z" transform="translate(15.45)" fill="#1d1d1b"/><path d="M30.78,27.669,24.125,15.975,30.745,4.51V.191H27.838L21.673,11.656,15.054,0H9.66l9.106,15.975L9.7,31.911h5.359l6.164-11.465L27.8,31.911h3.012C30.815,30.841,30.78,29.389,30.78,27.669Z" transform="translate(29.185)" fill="#f9b742"/><path d="M18.092,0l-.665,3.748H1.28L1.98,0Z" transform="translate(3.203)" fill="#1d1d1b"/><path d="M17.452,3.59l-.665,3.748H.64L1.305,3.59Z" transform="translate(1.602 10.298)" fill="#1d1d1b"/><path d="M16.812,7.28l-.665,3.748H0L.665,7.28Z" transform="translate(0 20.883)" fill="#1d1d1b"/></svg>