<?xml version="1.0" standalone="no"?>
<!DOCTYPE svg PUBLIC "-//W3C//DTD SVG 20010904//EN"
 "http://www.w3.org/TR/2001/REC-SVG-20010904/DTD/svg10.dtd">
<svg version="1.0" xmlns="http://www.w3.org/2000/svg"
 width="102.000000pt" height="102.000000pt" viewBox="0 0 102.000000 102.000000"
 preserveAspectRatio="xMidYMid meet">
<metadata>
Created by potrace 1.11, written by Peter Selinger 2001-2013
</metadata>
<g transform="translate(0.000000,102.000000) scale(0.100000,-0.100000)"
fill="#000000" stroke="none">
<path d="M120 843 c-7 -43 -13 -85 -15 -93 -2 -8 -12 -73 -24 -145 -12 -71
-23 -141 -26 -155 -3 -14 -8 -45 -11 -70 -3 -25 -14 -94 -25 -154 -10 -60 -16
-112 -14 -116 6 -9 404 -10 409 -1 2 3 7 27 10 54 l7 47 -145 0 -144 0 4 33
c3 17 7 41 9 52 1 11 8 54 15 95 l12 75 129 0 129 0 6 35 c3 19 6 42 7 50 2
13 -19 15 -126 18 l-129 3 7 40 c4 22 8 47 10 57 2 9 6 42 10 72 4 30 11 60
16 65 5 6 62 10 146 9 159 -2 153 -1 153 -12 0 -5 36 -72 81 -150 l81 -142
-85 -148 c-46 -81 -98 -172 -115 -203 l-31 -56 69 0 c64 -1 69 1 82 26 7 14
42 79 77 144 56 104 65 116 76 100 6 -10 40 -67 75 -128 79 -138 83 -141 125
-143 l35 -1 0 54 c0 51 -7 67 -85 205 l-85 150 85 149 c76 133 85 153 85 200
0 28 -3 51 -7 52 -5 0 -16 2 -27 4 -10 2 -24 1 -32 -2 -7 -3 -46 -64 -85 -136
-39 -73 -74 -136 -78 -140 -5 -5 -45 57 -91 137 l-82 146 -238 0 -237 0 -13
-77z"/>
</g>
</svg>
